<svg xmlns="http://www.w3.org/2000/svg" width="800" height="800" viewBox="0 0 800 800">
<rect width="800" height="800" fill="#0D0D0D"/>
<g opacity=".15" fill="none" stroke="#C8A55A" stroke-width="2">
<path d="M60 60l18 18-18 18-18-18z"/><path d="M60 180l18 18-18 18-18-18z"/><path d="M60 300l18 18-18 18-18-18z"/><path d="M60 420l18 18-18 18-18-18z"/><path d="M60 540l18 18-18 18-18-18z"/><path d="M60 660l18 18-18 18-18-18z"/><path d="M60 780l18 18-18 18-18-18z"/><path d="M180 60l18 18-18 18-18-18z"/><path d="M180 180l18 18-18 18-18-18z"/><path d="M180 300l18 18-18 18-18-18z"/><path d="M180 420l18 18-18 18-18-18z"/><path d="M180 540l18 18-18 18-18-18z"/><path d="M180 660l18 18-18 18-18-18z"/><path d="M180 780l18 18-18 18-18-18z"/><path d="M300 60l18 18-18 18-18-18z"/><path d="M300 180l18 18-18 18-18-18z"/><path d="M300 300l18 18-18 18-18-18z"/><path d="M300 420l18 18-18 18-18-18z"/><path d="M300 540l18 18-18 18-18-18z"/><path d="M300 660l18 18-18 18-18-18z"/><path d="M300 780l18 18-18 18-18-18z"/><path d="M420 60l18 18-18 18-18-18z"/><path d="M420 180l18 18-18 18-18-18z"/><path d="M420 300l18 18-18 18-18-18z"/><path d="M420 420l18 18-18 18-18-18z"/><path d="M420 540l18 18-18 18-18-18z"/><path d="M420 660l18 18-18 18-18-18z"/><path d="M420 780l18 18-18 18-18-18z"/><path d="M540 60l18 18-18 18-18-18z"/><path d="M540 180l18 18-18 18-18-18z"/><path d="M540 300l18 18-18 18-18-18z"/><path d="M540 420l18 18-18 18-18-18z"/><path d="M540 540l18 18-18 18-18-18z"/><path d="M540 660l18 18-18 18-18-18z"/><path d="M540 780l18 18-18 18-18-18z"/><path d="M660 60l18 18-18 18-18-18z"/><path d="M660 180l18 18-18 18-18-18z"/><path d="M660 300l18 18-18 18-18-18z"/><path d="M660 420l18 18-18 18-18-18z"/><path d="M660 540l18 18-18 18-18-18z"/><path d="M660 660l18 18-18 18-18-18z"/><path d="M660 780l18 18-18 18-18-18z"/><path d="M780 60l18 18-18 18-18-18z"/><path d="M780 180l18 18-18 18-18-18z"/><path d="M780 300l18 18-18 18-18-18z"/><path d="M780 420l18 18-18 18-18-18z"/><path d="M780 540l18 18-18 18-18-18z"/><path d="M780 660l18 18-18 18-18-18z"/><path d="M780 780l18 18-18 18-18-18z"/>
</g></svg>
