<svg xmlns="http://www.w3.org/2000/svg" viewBox="0 0 512 512" role="img" aria-label="icon-story.svg">
  <defs>
    <linearGradient id="g" x1="0" y1="0" x2="1" y2="1">
      <stop offset="0" stop-color="#E4C878"/><stop offset="0.55" stop-color="#C8A55A"/><stop offset="1" stop-color="#8F6B2E"/>
    </linearGradient>
    <filter id="s" x="-30%" y="-30%" width="160%" height="160%"><feDropShadow dx="0" dy="8" stdDeviation="8" flood-color="#000" flood-opacity=".35"/></filter>
  </defs>
  <rect width="512" height="512" rx="42" fill="#151412"/>
  <rect x="18" y="18" width="476" height="476" rx="30" fill="none" stroke="url(#g)" stroke-width="4" opacity=".65"/>
  <g fill="none" stroke="url(#g)" stroke-width="18" stroke-linecap="round" stroke-linejoin="round" filter="url(#s)">
    <path d="M118 130h116c30 0 54 24 54 54v204c0-30-24-54-54-54H118z"/><path d="M394 130H278c-30 0-54 24-54 54v204c0-30 24-54 54-54h116z"/><path d="M160 190h70M160 240h70M314 190h46M314 240h46"/>
  </g>
</svg>
